<svg width="20" height="23" viewBox="0 0 20 23" fill="none" xmlns="http://www.w3.org/2000/svg">
<path d="M6.92304 4.10254C6.71903 4.10254 6.52337 4.18358 6.37911 4.32784C6.23485 4.4721 6.15381 4.66776 6.15381 4.87177C6.15381 5.07578 6.23485 5.27144 6.37911 5.4157C6.52337 5.55996 6.71903 5.641 6.92304 5.641H13.0769C13.2809 5.641 13.4766 5.55996 13.6208 5.4157C13.7651 5.27144 13.8461 5.07578 13.8461 4.87177C13.8461 4.66776 13.7651 4.4721 13.6208 4.32784C13.4766 4.18358 13.2809 4.10254 13.0769 4.10254H6.92304Z" fill="#4B4946"/>
<path fill-rule="evenodd" clip-rule="evenodd" d="M9.94154 0C7.81538 0 6.14051 -1.52832e-08 4.8318 0.177436C3.48821 0.36 2.41641 0.74359 1.57436 1.59487C0.733333 2.44513 0.355897 3.52513 0.175385 4.87897C0 6.20103 0 7.89231 0 10.0421V15.2708C0 16.8174 -4.58497e-08 18.041 0.0984615 18.9631C0.195897 19.8738 0.404103 20.6954 1.00103 21.2451C1.47897 21.6862 2.0841 21.9631 2.73026 22.0379C3.53744 22.1303 4.29128 21.7446 5.03487 21.2174C5.78667 20.6862 6.69846 19.879 7.84923 18.8615L7.88615 18.8287C8.41949 18.3569 8.78051 18.039 9.08205 17.8174C9.37333 17.6051 9.55077 17.5282 9.70051 17.4974C9.89827 17.4585 10.1017 17.4585 10.2995 17.4974C10.4492 17.5282 10.6277 17.6051 10.9179 17.8174C11.2195 18.0379 11.5805 18.3569 12.1138 18.8287L12.1518 18.8615C13.3015 19.879 14.2133 20.6862 14.9651 21.2185C15.7087 21.7446 16.4626 22.1303 17.2697 22.0379C17.9156 21.9637 18.5212 21.686 18.999 21.2451C19.5949 20.6954 19.8041 19.8738 19.9015 18.9631C20 18.041 20 16.8174 20 15.2708V10.0421C20 7.89231 20 6.2 19.8246 4.87897C19.6441 3.52513 19.2667 2.44513 18.4256 1.59487C17.5836 0.74359 16.5118 0.36 15.1682 0.177436C13.8595 -1.52832e-08 12.1846 0 10.0585 0H9.94154ZM2.66667 2.67692C3.17641 2.16205 3.86872 1.86154 5.03795 1.70256C6.23077 1.54051 7.80103 1.53846 9.99897 1.53846C12.1969 1.53846 13.7672 1.54051 14.96 1.70256C16.1292 1.86154 16.8215 2.16205 17.3313 2.67692C17.8421 3.19282 18.1405 3.89538 18.2985 5.08205C18.4585 6.29026 18.4605 7.87897 18.4605 10.1005V15.2215C18.4605 16.8277 18.4595 17.9703 18.3713 18.799C18.279 19.6503 18.1118 19.9692 17.9559 20.1138C17.7159 20.3344 17.4144 20.4728 17.0944 20.5087C16.8892 20.5323 16.5467 20.4533 15.8533 19.9631C15.1785 19.4841 14.3282 18.7344 13.1323 17.6759L13.1056 17.6523C12.6051 17.2103 12.1908 16.8441 11.8246 16.5754C11.4421 16.2964 11.0564 16.081 10.6021 15.9897C10.204 15.9096 9.79396 15.9096 9.3959 15.9897C8.94154 16.0821 8.55487 16.2964 8.17333 16.5764C7.80718 16.8431 7.39282 17.2103 6.89231 17.6523L6.86564 17.6759C5.66974 18.7344 4.81949 19.4841 4.14462 19.9631C3.45128 20.4533 3.10872 20.5323 2.90359 20.5087C2.5818 20.4718 2.28009 20.3335 2.04205 20.1138C1.88615 19.9692 1.71795 19.6503 1.62769 18.799C1.53846 17.9692 1.53744 16.8277 1.53744 15.2215V10.0995C1.53744 7.87897 1.53949 6.29026 1.69949 5.08205C1.85744 3.89538 2.1559 3.19282 2.66667 2.67692Z" fill="#4B4946"/>
</svg>
