<svg width="22" height="23" viewBox="0 0 22 23" fill="none" xmlns="http://www.w3.org/2000/svg">
<path d="M21 19.0444V11.5633C21 10.9605 20.8774 10.364 20.6396 9.81003C20.4017 9.25609 20.0537 8.75631 19.6167 8.34111L12.5311 1.61111C12.1181 1.21876 11.5702 1 11.0006 1C10.4309 1 9.883 1.21876 9.47 1.61111L2.38333 8.34111C1.94628 8.75631 1.59826 9.25609 1.36045 9.81003C1.12264 10.364 0.999999 10.9605 1 11.5633V19.0444C1 19.6338 1.23413 20.199 1.65087 20.6158C2.06762 21.0325 2.63285 21.2667 3.22222 21.2667H18.7778C19.3671 21.2667 19.9324 21.0325 20.3491 20.6158C20.7659 20.199 21 19.6338 21 19.0444Z" stroke="#4B4946" stroke-width="2" stroke-linecap="round" stroke-linejoin="round"/>
</svg>
