<svg width="22" height="18" viewBox="0 0 22 18" fill="none" xmlns="http://www.w3.org/2000/svg">
<path d="M14.0769 4.84615V2.92308C14.0769 2.41305 13.8743 1.9239 13.5137 1.56326C13.153 1.20261 12.6639 1 12.1538 1H2.92308C2.41305 1 1.9239 1.20261 1.56326 1.56326C1.20261 1.9239 1 2.41305 1 2.92308V14.4615C1 14.9716 1.20261 15.4607 1.56326 15.8214C1.9239 16.182 2.41305 16.3846 2.92308 16.3846H12.1538C12.6639 16.3846 13.153 16.182 13.5137 15.8214C13.8743 15.4607 14.0769 14.9716 14.0769 14.4615V12.5385M17.1538 4.84615L21 8.69231M21 8.69231L17.1538 12.5385M21 8.69231H7.875" stroke="black" stroke-width="1.5" stroke-linecap="round" stroke-linejoin="round"/>
</svg>
