<svg width="17" height="17" viewBox="0 0 17 17" fill="none" xmlns="http://www.w3.org/2000/svg">
<path d="M16 1L10.6782 15.7373C10.6423 15.8157 10.5846 15.8821 10.512 15.9287C10.4395 15.9752 10.3551 16 10.2688 16C10.1826 16 10.0982 15.9752 10.0256 15.9287C9.95306 15.8821 9.89538 15.8157 9.85946 15.7373L6.99388 10.0061L1.26271 7.14054C1.18432 7.10462 1.1179 7.04694 1.07133 6.97438C1.02476 6.90181 1 6.81739 1 6.73117C1 6.64494 1.02476 6.56053 1.07133 6.48796C1.1179 6.41539 1.18432 6.35772 1.26271 6.3218L16 1Z" stroke="black" stroke-width="2" stroke-linecap="round" stroke-linejoin="round"/>
</svg>
