<svg width="15" height="15" viewBox="0 0 15 15" fill="none" xmlns="http://www.w3.org/2000/svg">
<path d="M1.58917 1.47643H4.90375L5.97195 4.14729L4.2556 5.29152C4.15452 5.35896 4.07166 5.4503 4.01435 5.55744C3.95705 5.66458 3.92707 5.78421 3.92709 5.90572C3.92931 5.97511 3.92709 5.90646 3.92709 5.90646V5.92196C3.92753 5.95497 3.92901 5.98796 3.93152 6.02088C3.93595 6.08141 3.94333 6.16336 3.95736 6.26449C3.98615 6.46381 4.04152 6.73843 4.14929 7.06176C4.36633 7.71139 4.79154 8.55222 5.61982 9.3805C6.4481 10.2088 7.28892 10.634 7.93781 10.851C8.26189 10.9588 8.53577 11.0134 8.73656 11.043C8.8499 11.0588 8.96399 11.0686 9.07836 11.0725L9.08795 11.0732H9.09386C9.09386 11.0732 9.17654 11.0688 9.0946 11.0732C9.23165 11.0732 9.36599 11.0349 9.48255 10.9628C9.59911 10.8907 9.6933 10.7876 9.75456 10.665L10.2492 9.67578L13.5239 10.2221V13.4112C11.9655 13.6363 7.75621 13.8585 4.44901 10.5513C1.14181 7.2441 1.36327 3.03406 1.58917 1.47643ZM5.45741 6.26449L6.79137 5.37568C7.07318 5.18771 7.28178 4.90855 7.38218 4.58503C7.48258 4.2615 7.46868 3.91329 7.34281 3.5988L6.27462 0.927936C6.165 0.653989 5.97581 0.419169 5.73147 0.25377C5.48712 0.0883711 5.19881 -1.97793e-05 4.90375 3.31992e-09H1.55078C0.879741 3.31992e-09 0.248568 0.465814 0.138573 1.19369C-0.11242 2.84877 -0.452736 7.73723 3.40517 11.5951C7.26308 15.4531 12.1515 15.112 13.8066 14.8617C14.5345 14.751 15.0003 14.1206 15.0003 13.4495V10.2221C15.0004 9.87256 14.8764 9.53438 14.6505 9.26768C14.4247 9.00098 14.1115 8.82306 13.7668 8.76556L10.492 8.22002C10.1806 8.16803 9.86066 8.21727 9.57925 8.3605C9.29784 8.50373 9.06976 8.73341 8.9285 9.01582L8.67308 9.5274C8.58275 9.50516 8.49335 9.4793 8.4051 9.44989C7.94741 9.29782 7.31181 8.98481 6.66365 8.33666C6.0155 7.68851 5.7025 7.0529 5.55043 6.59447C5.51411 6.48611 5.48332 6.37597 5.45815 6.26449H5.45741Z" fill="black"/>
</svg>
