<svg width="12" height="12" viewBox="0 0 12 12" fill="none" xmlns="http://www.w3.org/2000/svg">
<path d="M9.33333 5.16667V9.95833C9.33333 10.0951 9.30639 10.2306 9.25404 10.357C9.20169 10.4833 9.12496 10.5982 9.02824 10.6949C8.93151 10.7916 8.81668 10.8684 8.6903 10.9207C8.56391 10.9731 8.42846 11 8.29167 11H2.04167C1.7654 11 1.50045 10.8903 1.3051 10.6949C1.10975 10.4996 1 10.2346 1 9.95833V3.70833C1 3.43207 1.10975 3.16711 1.3051 2.97176C1.50045 2.77641 1.7654 2.66667 2.04167 2.66667H6.40313M8.08333 1H11V3.91667M5.16667 6.83333L10.7917 1.20833" stroke="black" stroke-linecap="round" stroke-linejoin="round"/>
</svg>