<svg width="22" height="22" viewBox="0 0 22 22" fill="none" xmlns="http://www.w3.org/2000/svg">
<path d="M17.6667 9.33333V18.9167C17.6667 19.1903 17.6128 19.4612 17.5081 19.7139C17.4034 19.9667 17.2499 20.1963 17.0565 20.3898C16.863 20.5833 16.6334 20.7367 16.3806 20.8414C16.1278 20.9461 15.8569 21 15.5833 21H3.08333C2.5308 21 2.00089 20.7805 1.61019 20.3898C1.21949 19.9991 1 19.4692 1 18.9167V6.41667C1 5.86413 1.21949 5.33423 1.61019 4.94353C2.00089 4.55283 2.5308 4.33333 3.08333 4.33333H11.8063M15.1667 1H21V6.83333M9.33333 12.6667L20.5833 1.41667" stroke="black" stroke-linecap="round" stroke-linejoin="round"/>
</svg>
