<svg width="31" height="34" viewBox="0 0 31 34" fill="none" xmlns="http://www.w3.org/2000/svg">
<path d="M29.1648 22.7833L15.473 30.7677L1.78118 22.7833C1.51009 22.6483 1.19775 22.6217 0.907741 22.7089C0.617731 22.7961 0.371843 22.9905 0.220127 23.2526C0.0684116 23.5147 0.0222701 23.8248 0.0910943 24.1197C0.159918 24.4146 0.338536 24.6722 0.59059 24.84L14.8777 33.1742C15.0597 33.2803 15.2667 33.3363 15.4774 33.3363C15.6882 33.3363 15.8951 33.2803 16.0772 33.1742L30.3643 24.84C30.5015 24.7624 30.6219 24.6583 30.7186 24.5337C30.8153 24.4092 30.8862 24.2667 30.9274 24.1145C30.9685 23.9622 30.979 23.8034 30.9582 23.6471C30.9375 23.4908 30.8859 23.3402 30.8065 23.204C30.727 23.0678 30.6213 22.9487 30.4955 22.8537C30.3697 22.7587 30.2263 22.6896 30.0736 22.6505C29.9208 22.6113 29.7618 22.6029 29.6058 22.6257C29.4498 22.6485 29.2999 22.7021 29.1648 22.7833Z" fill="#27187E"/>
<path d="M29.1648 15.6398L15.473 23.6242L1.78118 15.6398C1.51009 15.5048 1.19775 15.4782 0.907741 15.5654C0.617731 15.6526 0.371843 15.847 0.220127 16.1091C0.0684116 16.3712 0.0222701 16.6812 0.0910943 16.9762C0.159918 17.2711 0.338536 17.5287 0.59059 17.6965L14.8777 26.0307C15.0597 26.1368 15.2667 26.1928 15.4774 26.1928C15.6882 26.1928 15.8951 26.1368 16.0772 26.0307L30.3643 17.6965C30.5015 17.6189 30.6219 17.5148 30.7186 17.3902C30.8153 17.2656 30.8862 17.1231 30.9274 16.9709C30.9685 16.8187 30.979 16.6599 30.9582 16.5036C30.9375 16.3473 30.8859 16.1967 30.8065 16.0605C30.727 15.9243 30.6213 15.8052 30.4955 15.7102C30.3697 15.6152 30.2263 15.5461 30.0736 15.507C29.9208 15.4678 29.7618 15.4594 29.6058 15.4822C29.4498 15.505 29.2999 15.5586 29.1648 15.6398Z" fill="#27187E"/>
<path d="M0.590627 10.553L14.8777 18.8871C15.0598 18.9933 15.2667 19.0492 15.4775 19.0492C15.6882 19.0492 15.8952 18.9933 16.0772 18.8871L30.3643 10.553C30.544 10.4481 30.6931 10.298 30.7968 10.1176C30.9004 9.93713 30.9549 9.73268 30.9549 9.5246C30.9549 9.31653 30.9004 9.11208 30.7968 8.93165C30.6931 8.75121 30.544 8.60109 30.3643 8.49623L16.0772 0.1621C15.8952 0.0559378 15.6882 0 15.4775 0C15.2667 0 15.0598 0.0559378 14.8777 0.1621L0.590627 8.49623C0.410901 8.60109 0.261792 8.75121 0.158162 8.93165C0.0545323 9.11208 0 9.31653 0 9.5246C0 9.73268 0.0545323 9.93713 0.158162 10.1176C0.261792 10.298 0.410901 10.4481 0.590627 10.553Z" fill="#27187E"/>
</svg>
